# xmcd
# 
# Track frame offsets:
#	150
#	18118
#	39187
#	58602
#	73542
#	90048
#	142150
#	158063
#	180735
#
# Disc length: 2661 seconds
#
# Revision: 1
# Processed by: cddbd v1.4PL0 Copyright (c) Steve Scherf et al.
# Submitted via: Audio-CD-Archiv 2.10.438
#
DISCID=660a6309
DTITLE=Barbra Streisand - Wet
DYEAR=1900
DGENRE=blues
TTITLE0=Wet
TTITLE1=Come rain Or Come Shine
TTITLE2=Splish Splash
TTITLE3=On Rainy Afternoons
TTITLE4=After The Rain
TTITLE5=No More Tears
TTITLE6=Niagara
TTITLE7=I Ain't Gonna Cry Tonight
TTITLE8=Kiss Me In The Rain
EXTD=
EXTT0=
EXTT1=
EXTT2=
EXTT3=
EXTT4=
EXTT5=
EXTT6=
EXTT7=
EXTT8=
PLAYORDER=
